<?xml version="1.0"?>
<svg width="512" height="512" xmlns="http://www.w3.org/2000/svg" xmlns:svg="http://www.w3.org/2000/svg" xmlns:xlink="http://www.w3.org/1999/xlink" class="teapot" transform="translate(-50%, -50%)">
 <defs>
  <path d="m171.11,303.06c-27.67,-0.06 -13.99,61.36 9.04,40.2c13.2,-11.11 6.49,-41.03 -9.04,-40.2zm7.09,16.87c-16.21,-14.13 15.85,-14.25 0,0z" id="A"/>
 </defs>
 <g class="layer">
  <path d="m102.25,348.16c-58.75,1.91 -110.98,-55.86 -101.05,-114.18c5.92,-33.3 42.72,-54.44 74.86,-45.7c26.3,1.24 40.78,27.44 65.06,32.07c7.07,2.11 1.63,16.15 3.34,23.38c5.9,19.24 -14.89,12.3 -26.27,7.92c-23.1,-10.01 -43.96,-40 -71.88,-24.88c-19.11,15.61 -7.92,44.94 4.9,61.16c15.42,20.09 41.6,26.06 65.67,23.87l24.05,-0.34l0.51,36.15l-39.2,0.54l0.01,0.01z" fill="#e4e7e9" />
  <path d="m102.7,312c-16.32,6.28 -42.83,-25.24 -40.05,3.36c-11.18,31.48 24.18,33.84 46.83,32.69l31.98,-0.45l-0.51,-36.14l-38.25,0.54zm17.73,-101.03c-16.82,-21.62 -13.53,17.43 -23.76,27.23c11.16,10.08 38.21,24.62 47.8,14.58l0,-32.28a35.01,35.01 0 0 1 -24.03,-9.53l-0.01,0z"  opacity="0.1"/>
  <path d="m338.27,352.8l0,-81.83c29.18,-4.9 61.73,-5.74 83.98,-28.17c20.3,-16.9 25.15,-43.66 35.9,-66.34c9.6,-7.98 23.4,-3.1 35.03,-4.45c15.3,0.17 5,16.1 1.68,23.76c-12.11,24.92 -2.3,54.79 -17.5,78.87c-27.78,48.45 -83.62,78.45 -139.1,78.16l0.01,0z" fill="#e4e7e9" />
  <path d="m412.03,250.88c-21.55,15.48 -48.7,15.42 -73.76,20.08l0,81.83c22.18,-2.46 54.04,-0.43 67.17,-20.52c11.78,-25.2 14.14,-54.61 6.59,-81.39z"  opacity="0.1"/>
  <path d="m264.88,82.35c1.17,20.68 -28.54,31.05 -40.48,14.11c-13.55,-15.25 2.57,-41.5 22.29,-36.36c10.37,1.93 18.36,11.7 18.19,22.25z" fill="#60d195" />
  <path d="m251,61.42c26.18,19.63 -13.98,46.69 -20.48,40.4c27.65,16.37 49.47,-28.1 20.48,-40.4z"  opacity="0.1"/>
  <path d="m343.15,174.68l-201.95,0c0.77,34.36 -14.39,66.53 -34.67,93.4c-24.98,41.96 -18.68,97.61 11.82,135.02l17.13,24.9l213.4,0c19.6,-28.89 43.83,-57.6 44.3,-94.45c2.81,-32.57 -11.37,-63.32 -30.65,-88.65a137.24,137.24 0 0 1 -19.37,-70.23l-0.01,0.01zm-84.45,-76.59c-29.15,-0.06 -61.07,-2.67 -85.08,17.43c-12.63,9.77 -21.82,23.02 -32.42,34.81l201.95,0c-17.82,-21.4 -36.53,-45.28 -65.84,-50.22a86.37,86.37 0 0 0 -18.61,-2.02z" fill="#e4e7e9" />
  <g class="teabag"  transform="rotate(13.6824, 139.641, 216.63) translate(-13, 5) matrix(0.983336, 0.181795, -0.181795, 0.983336, 4.55887, -36.0476)">
   <path class="rope" d="m184.14,153.76l19.26,0l0,69.97l-19.25,0l-0.01,-69.97z" fill="#663300" />
   <g class="sticker"  transform="matrix(.753381 0 0 .761524 137.09092 169.22436)">
    <g fill-rule="evenodd" >
     <path d="m111.43,58.46c-6.29,-7.21 -77.96,-4.7 -80.18,0c-5.18,10.96 -5.74,71.67 0,75.45c11.36,7.48 62.97,20.24 80.18,0c3.82,-4.5 5.63,-69 0,-75.45z" fill="#fff22d" />
     <path d="m38.35,110.89l0.81,0.96l3.48,0c2.77,0 4.74,0.12 6.59,0.48s3.64,0.98 6.03,1.98c2.41,1 5.12,1.8 8.04,2.34a48.95,48.95 0 0 0 8.87,0.8c3.09,0 6.07,-0.28 8.88,-0.8c2.92,-0.54 5.63,-1.34 8.04,-2.34c2.37,-0.99 4.14,-1.61 5.97,-1.97s3.79,-0.49 6.52,-0.49l3.65,0l0.77,-0.97l-2.87,-1.89l-1.55,0c-2.91,0 -5.02,0.13 -7.06,0.54s-3.98,1.07 -6.53,2.13c-2.24,0.94 -4.75,1.68 -7.45,2.18a46.03,46.03 0 0 1 -8.36,0.74a46.03,46.03 0 0 1 -8.37,-0.74c-2.7,-0.5 -5.21,-1.24 -7.45,-2.18c-2.58,-1.07 -4.52,-1.74 -6.59,-2.14c-2.06,-0.4 -4.19,-0.53 -7.13,-0.53l-1.42,0l-2.87,1.9z" fill="#c6a72a" />
    </g>
    <path d="m38.35,88.97l3.67,0l6.66,-0.32c1.84,-0.29 3.63,-0.83 5.97,-1.87c2.47,-1.08 5.26,-1.95 8.29,-2.53c2.91,-0.57 6.01,-0.87 9.24,-0.87c3.08,0 6.07,0.28 8.87,0.8c2.92,0.54 5.63,1.34 8.04,2.34c2.42,1 4.23,1.63 6.09,1.98s3.85,0.47 6.65,0.47l4.17,0l0,21.89l-4.42,0c-2.73,0 -4.68,0.12 -6.51,0.49s-3.61,0.98 -5.98,1.97c-2.41,1 -5.12,1.8 -8.04,2.34c-2.81,0.52 -5.79,0.8 -8.87,0.8s-6.07,-0.28 -8.88,-0.8c-2.92,-0.54 -5.63,-1.34 -8.04,-2.34c-2.39,-1 -4.18,-1.62 -6.03,-1.98s-3.82,-0.48 -6.59,-0.48l-4.29,0l0,-21.89zm2.87,2.87l0,16.16l1.43,0c2.94,0 5.06,0.13 7.13,0.53c2.06,0.41 4,1.07 6.58,2.15c2.24,0.93 4.75,1.67 7.46,2.17c2.61,0.48 5.42,0.74 8.36,0.74s5.75,-0.26 8.36,-0.74c2.7,-0.5 5.22,-1.24 7.45,-2.17c2.56,-1.07 4.48,-1.73 6.53,-2.14s4.15,-0.54 7.07,-0.54l1.55,0l0,-16.16l-1.31,0c-2.96,0 -5.1,-0.12 -7.19,-0.53s-4.04,-1.06 -6.65,-2.15c-2.23,-0.93 -4.75,-1.66 -7.45,-2.16c-2.61,-0.48 -5.42,-0.75 -8.36,-0.75c-3.06,0 -5.98,0.29 -8.7,0.82c-2.81,0.54 -5.4,1.34 -7.68,2.34c-2.57,1.13 -4.57,1.74 -6.69,2.07c-2.11,0.33 -4.22,0.37 -7.09,0.37l-0.8,-0.01z" fill="#fff" />
    <path d="m40.06,90.46l3.49,0c3.9,0 8.41,-0.93 11.98,-2.43c2.35,-0.98 5,-1.76 7.88,-2.29c2.75,-0.51 5.7,-0.79 8.77,-0.79c2.92,0 5.76,0.25 8.42,0.73c2.78,0.49 5.35,1.2 7.63,2.11c3.66,1.45 8.13,2.67 12.1,2.67l3.96,0l0,18.91l-4.19,0c-3.89,0 -8.3,1.25 -11.86,2.67c-2.29,0.91 -4.86,1.63 -7.63,2.12c-2.79,0.48 -5.61,0.73 -8.43,0.72a48.62,48.62 0 0 1 -8.43,-0.72c-2.77,-0.49 -5.34,-1.21 -7.63,-2.12c-3.61,-1.43 -8.05,-2.67 -11.98,-2.67l-4.08,0l0,-18.91z" fill="#cc2229" />
    <g fill="#76070b" >
     <path d="m40.06,90.46l3.49,0c3.9,0 8.41,-0.93 11.98,-2.43c2.35,-0.98 5,-1.76 7.88,-2.29c2.75,-0.51 5.7,-0.79 8.77,-0.79c2.92,0 5.76,0.25 8.42,0.73c2.78,0.49 5.35,1.2 7.63,2.11c3.66,1.45 8.13,2.67 12.1,2.67l3.96,0l0,1.25l-3.27,0c-3.98,0 -8.45,-1.22 -12.1,-2.67c-2.29,-0.9 -4.86,-1.62 -7.63,-2.11a48.63,48.63 0 0 0 -8.43,-0.73c-3.06,0 -6.02,0.28 -8.77,0.79c-2.88,0.53 -5.53,1.31 -7.88,2.29c-3.57,1.5 -8.07,2.43 -11.98,2.43l-3.49,0l0,17.67l-0.68,0l0,-18.92z" />
     <path d="m104.3,108.92l0,0.46l-4.2,0c-3.89,0 -8.3,1.25 -11.86,2.66c-2.29,0.91 -4.86,1.63 -7.63,2.12c-2.79,0.49 -5.61,0.73 -8.43,0.73a48.62,48.62 0 0 1 -8.43,-0.73c-2.77,-0.49 -5.34,-1.21 -7.63,-2.12c-3.61,-1.43 -8.05,-2.66 -11.98,-2.66l-4.08,0l0,-0.46l4.08,0c3.93,0 8.37,1.24 11.98,2.67c2.29,0.91 4.86,1.63 7.63,2.11c2.78,0.49 5.6,0.73 8.43,0.73c2.93,0 5.76,-0.25 8.43,-0.73c2.77,-0.48 5.34,-1.2 7.63,-2.11c3.56,-1.42 7.97,-2.67 11.86,-2.67l4.2,0z" />
     <path d="m103.5,90.46l0.8,0l0,18.92l-0.8,-0.46l0,-18.46z" />
    </g>
    <g fill="#fff" >
     <path d="m83.57,100.4l0.03,-1.2l0,2.39c-0.02,0.66 -0.03,0.12 -0.03,-1.19zm-40.34,-1.7l0.03,-1.78l0,3.56c-0.02,0.98 -0.03,0.18 -0.03,-1.78z" />
     <path d="m69,105.22c-0.1,-0.04 -0.17,-1.45 -0.07,-1.45c0.02,0 0.3,0.05 0.62,0.1c1.03,0.18 1.78,0.02 2.22,-0.48c0.32,-0.36 0.26,-0.54 -1,-3.32c-1.22,-2.69 -1.44,-3.11 -1.84,-3.47c-0.22,-0.2 -0.22,-0.2 1.57,-0.2s1.79,0 1.89,0.43c0.09,0.45 1.29,3.51 1.37,3.51c0.26,0.01 1.22,-3.53 1.03,-3.8c-0.1,-0.14 -0.1,-0.14 1.19,-0.14l1.28,0.06c0,0.03 -0.08,0.2 -0.18,0.37s-0.69,1.46 -1.32,2.87c-1.78,4.01 -2.31,4.71 -4.05,5.32c-0.54,0.2 -2.34,0.32 -2.71,0.2zm11.84,-2.29c-0.94,-0.1 -1.73,-0.49 -1.95,-0.93c-0.06,-0.11 -0.09,-0.97 -0.09,-2.34c0,-2.16 0,-2.16 -0.6,-2.16c-0.93,0 -0.95,-1.09 -0.02,-1.12c0.58,-0.02 0.58,-0.02 0.62,-0.66c0.04,-0.59 1.48,-1.2 2.88,-1.2c0.08,0 0.11,0.22 0.11,0.91c0,0.9 0,0.9 0.86,0.9s0.85,0 0.85,0.58s0,0.59 -0.85,0.59s-0.86,0 -0.85,1.82c0.01,2.36 0.01,2.36 1.13,2.43c0.87,0.05 0.9,0.99 0.04,1.1c-0.86,0.11 -1.61,0.14 -2.13,0.08zm6.97,0.02c-5.33,-0.61 -4.74,-6.74 0.65,-6.75c2.62,0 4.43,1.4 4.43,3.43c0,2.04 -2.43,3.63 -5.08,3.32zm1.17,-1.18c1.19,-0.71 0.8,-4.47 -0.47,-4.47c-0.83,0 -1.13,0.72 -1.06,2.54c0.06,1.73 0.64,2.46 1.53,1.93zm-25.17,1.07c-4.51,-0.83 -4.32,-5.84 0.26,-6.55c2.28,-0.35 4.42,0.82 4.44,2.43c0,0.47 0,0.47 -2.3,1.07c-2.59,0.67 -2.46,0.61 -2.09,1.14c0.73,1.03 2.4,1.05 3.8,0.05c0.47,-0.33 0.47,-0.33 0.47,0.34s0,0.67 -0.4,0.88c-1.32,0.65 -2.85,0.88 -4.17,0.64l-0.01,0zm1.51,-4.1c0.36,-0.29 0.21,-1.28 -0.23,-1.41c-0.48,-0.14 -1.02,0.05 -1.29,0.43c-0.11,0.18 -0.3,1.44 -0.22,1.5s1.56,-0.38 1.74,-0.52zm-22.09,-0.04c0,-4.09 0,-4.09 -0.29,-4.54l-0.33,-0.51c-0.07,-0.11 6.28,-0.01 6.94,0.11c2.25,0.4 3.42,1.51 3.11,2.94c-0.31,1.48 -1.68,2.12 -4.85,2.25c-1.4,0.05 -1.69,2.08 -0.54,3.79c0.02,0.03 -0.88,0.05 -2.01,0.05c-2.03,0 -2.03,0 -2.03,-4.09zm5.06,-1.21c1.23,-0.41 1.2,-2.04 -0.06,-2.42c-1.37,-0.42 -1.54,-0.28 -1.54,1.22s0.21,1.65 1.6,1.2zm5.87,2.83c0,-2.59 -0.05,-3.09 -0.38,-3.66c-0.16,-0.27 -0.16,-0.27 1.4,-0.27c1.74,0 1.67,-0.03 1.67,0.61c0,0.33 0.07,0.31 0.65,-0.13c0.66,-0.5 1.66,-0.8 2.21,-0.64c0.46,0.14 0.14,1.55 -0.35,1.53c-1.9,-0.1 -2.98,2.7 -1.83,4.73c0.17,0.3 0.17,0.3 -1.6,0.3s-1.77,0 -1.77,-2.47zm40.44,-0.07c0,-2.62 -0.06,-3.18 -0.35,-3.61c-0.17,-0.25 -0.17,-0.25 1.41,-0.25s1.58,0 1.64,0.26c0.03,0.14 0.06,0.26 0.08,0.26s0.25,-0.12 0.53,-0.26c1.18,-0.6 2.54,-0.59 3.41,0.02c0.75,0.52 0.74,0.5 0.8,2.96c0.05,2.27 0.04,2.22 0.47,3.05c0.05,0.11 -0.06,0.11 -1.66,0.11c-1.72,0 -1.72,0 -1.72,-2.26c0,-2.9 -0.32,-3.51 -1.42,-2.69c-0.31,0.24 -0.31,3.82 0,4.52c0.2,0.43 0.2,0.43 -1.5,0.43s-1.69,0 -1.69,-2.54z" />
    </g>
   </g>
  </g>
  <path d="m353.62,150.33l-222.88,0c-25.88,7.13 -3.46,30.76 14.2,24.35l208.68,0c15.92,0.17 15.92,-24.48 0,-24.35z" fill="#60d195" />
  <path d="m353.62,150.33l-28.75,0c18.33,-0.67 11.57,26.66 1.3,24.35c11.99,-1.19 25.44,3.01 36.07,-3.57c7.73,-7.16 1.93,-21.18 -8.61,-20.78l-0.01,0z"  opacity="0.1"/>
  <path d="m353.62,428l-222.88,0c-15.91,11.73 -5.57,25.56 14.2,24.35l208.68,0c15.92,0.17 15.92,-24.48 0,-24.35z" fill="#60d195" />
  <path d="m353.62,428l-28.75,0c18.33,-0.67 11.57,26.66 1.3,24.35c11.99,-1.19 25.44,3.01 36.07,-3.57c7.73,-7.16 1.93,-21.18 -8.61,-20.78l-0.01,0z"  opacity="0.1"/>
  <g  transform="translate(3) matrix(1, 0, 0, 1, -1, -48)">
   <use class="eye"  x="138.15" xlink:href="#A"/>
   <use class="eye"  xlink:href="#A"/>
  </g>
  <g class="mouth"  transform="matrix(1, 0, 0, 1.48743, 0, -201.862)">
   <path d="m175.69,352.59c0,13.22 7.91,43.78 19,50.35c13.55,-8.02 31.85,-11.54 46.46,-11.54c14.62,0 32.91,3.52 46.46,11.54c11.09,-6.57 19,-37.13 19,-50.35l-65.11,0l0,0l-65.81,0z" fill="#A862A6" />
   <path d="m194.69,402.94c29.86,14.93 63.06,14.93 92.92,0c1.43,-26.83 -87.9,-22.31 -92.92,0z" fill="#e0b7e5" />
  </g>
 </g>
</svg>